<?xml version="1.0" encoding="utf-8"?>
<!-- Generator: Adobe Illustrator 22.1.0, SVG Export Plug-In . SVG Version: 6.00 Build 0)  -->
<svg version="1.1" id="Layer_1" xmlns="http://www.w3.org/2000/svg" xmlns:xlink="http://www.w3.org/1999/xlink" x="0px" y="0px"
	 viewBox="0 0 117.2 46.3" style="enable-background:new 0 0 117.2 46.3;" xml:space="preserve">
<style type="text/css">
	.st0{fill-rule:evenodd;clip-rule:evenodd;fill:#0263AC;}
	.st1{fill:#0263AC;}
	.st2{fill:none;stroke:#0263AC;stroke-miterlimit:10;}
</style>
<g>
	<g>
		<g>
			<g>
				<g>
					<g>
						<path class="st0" d="M6.9,18.6l-5.5-2.4L1.3,9.6L14,15.3l3.4-1.6c0.3-0.1,0.4-0.3,0.4-0.5c0-0.3-0.2-0.5-0.5-0.6L5.9,7.5
							L16,2.7c0.3-0.1,0.6-0.2,0.9-0.2c0.3,0,0.6,0.1,0.9,0.2l15.3,6.8c0.7,0.3,1.5,0.7,1.6,1.7c0,1-0.8,1.3-1.5,1.7l-11.9,5.6
							l12,5.3c0.8,0.3,1.5,0.7,1.5,1.6c0,1-0.8,1.4-1.5,1.7l-15.2,7.2c-0.3,0.1-0.6,0.2-0.9,0.2c-0.3,0-0.6-0.1-0.9-0.2L6.2,29.8
							l11.3-5.3c0.2-0.1,0.4-0.3,0.4-0.6c0-0.2-0.2-0.4-0.4-0.6l-3.4-1.5L1.5,27.7l-0.1-6.6L6.9,18.6L6.9,18.6z"/>
						<path class="st0" d="M3,41.9L3,41.9L3,41.9L3,41.9L3,41.9z M1.3,44.1V39h4.4c0.9,0,2.4,0.1,2.4,1.3c0,0.6-0.5,1-1.1,1.2
							c0.7,0.2,1.1,0.7,1.1,1.2c0,1.2-1.4,1.4-2.4,1.4H1.3L1.3,44.1z M3,41.9l0.5-0.8C3.5,41,3.8,40.9,4,40.9h0.9l0,0h0.9
							c0.3,0,0.6-0.2,0.6-0.4c0-0.3-0.3-0.4-0.6-0.4H3V41.9L3,41.9z M3,41.9v2.1l0.5-0.8C3.5,43.1,3.8,43,4,43h1.8
							c0.3,0,0.6-0.2,0.6-0.5c0-0.3-0.3-0.5-0.6-0.5H3L3,41.9z M12.1,40.2l-2.2,3.9H8l3.1-5.1h1h1l3.1,5.1h-1.9l-0.5-0.9h-2.8l0,0
							l0,0l0,0l0.5-0.8c0.1-0.2,0.3-0.3,0.5-0.3h1.2L12.1,40.2L12.1,40.2z M25.4,40.2l-2.2,3.9h-1.9l3.1-5.1h1.1h1l3.1,5.1h-1.9
							l-0.5-0.9h-2.8l0,0l0,0l0,0l0.5-0.8c0.1-0.2,0.3-0.3,0.5-0.3h1.2L25.4,40.2L25.4,40.2z M19.2,43c0.4,0,0.7-0.2,0.7-0.6V39h1.6
							v3.6c0,1.1-0.7,1.5-1.7,1.5h-2.7l0,0c-0.2,0-0.4-0.1-0.5-0.3L16.1,43H19.2L19.2,43z M32.5,43c0.4,0,0.7-0.2,0.7-0.6V39h1.6
							v3.6c0,1.1-0.7,1.5-1.7,1.5h-2.7l0,0c-0.2,0-0.4-0.1-0.5-0.3L29.4,43H32.5L32.5,43z"/>
					</g>
				</g>
			</g>
		</g>
	</g>
	<g>
		<g>
			<g>
				<path class="st1" d="M74.8,7.9l-2,7.3l-2.1,0.4l-0.6-2.2l-0.6,2.4l-2.1,0.4l-2-6.7l2.3-0.4l0.9,3.2l0.7-3.5l1.6-0.3l0.7,3.2
					l0.9-3.5L74.8,7.9z"/>
				<path class="st1" d="M78.2,7.2c0.5-0.1,1-0.1,1.4,0c0.4,0.1,0.8,0.3,1.1,0.6c0.3,0.3,0.6,0.6,0.8,1c0.2,0.4,0.3,0.9,0.3,1.4
					c0,0.5-0.1,1-0.3,1.5c-0.2,0.5-0.4,0.9-0.8,1.3c-0.3,0.4-0.7,0.7-1.1,1c-0.4,0.3-0.9,0.4-1.4,0.5c-0.5,0.1-1,0.1-1.4,0
					c-0.4-0.1-0.8-0.3-1.1-0.6c-0.3-0.3-0.6-0.6-0.8-1c-0.2-0.4-0.3-0.9-0.3-1.4c0-0.5,0.1-1,0.3-1.5c0.2-0.5,0.4-0.9,0.8-1.3
					c0.3-0.4,0.7-0.7,1.1-1C77.3,7.5,77.7,7.3,78.2,7.2z M79.8,10.5c0-0.2,0-0.4-0.1-0.6c-0.1-0.2-0.2-0.3-0.3-0.4
					c-0.1-0.1-0.3-0.2-0.5-0.2c-0.2,0-0.4-0.1-0.6,0c-0.2,0-0.4,0.1-0.6,0.2c-0.2,0.1-0.3,0.2-0.5,0.4c-0.1,0.2-0.2,0.3-0.3,0.5
					c-0.1,0.2-0.1,0.4-0.1,0.6c0,0.2,0,0.4,0.1,0.6c0.1,0.2,0.2,0.3,0.3,0.4c0.1,0.1,0.3,0.2,0.5,0.2c0.2,0,0.4,0.1,0.6,0
					c0.2,0,0.4-0.1,0.6-0.2c0.2-0.1,0.3-0.3,0.5-0.4c0.1-0.2,0.2-0.3,0.3-0.5C79.7,11,79.8,10.8,79.8,10.5z"/>
				<path class="st1" d="M88.1,12.6L85.9,13c-0.3-0.4-0.5-0.7-0.7-0.9c-0.2-0.2-0.3-0.4-0.5-0.5c-0.1-0.1-0.2-0.2-0.3-0.2
					c-0.1,0-0.1,0-0.1,0c0,0,0,0.1,0,0.2c0,0.1,0,0.1,0,0.2v1.5l-2,0.4v-7L85,6.1c0.3-0.1,0.6,0,0.9,0.1c0.3,0.1,0.5,0.2,0.8,0.4
					c0.3,0.2,0.4,0.5,0.6,0.8c0.1,0.3,0.2,0.6,0.2,1c0,0.3-0.1,0.7-0.2,1c-0.1,0.4-0.3,0.7-0.6,1L88.1,12.6z M85.4,8.6
					c0-0.2-0.1-0.3-0.2-0.4c-0.1-0.1-0.3-0.1-0.5-0.1l-0.5,0.1v1.3l0.5-0.1c0.2,0,0.3-0.1,0.5-0.3C85.4,9,85.4,8.8,85.4,8.6z"/>
				<path class="st1" d="M91.9,9.9v2l-3.4,0.6v-7l2-0.4v5L91.9,9.9z"/>
				<path class="st1" d="M94.5,4.5c0.5-0.1,0.9-0.1,1.3,0c0.4,0.1,0.8,0.3,1.1,0.6c0.3,0.3,0.6,0.6,0.7,1c0.2,0.4,0.3,0.8,0.3,1.3
					c0,0.5-0.1,1-0.3,1.4c-0.2,0.5-0.4,0.9-0.7,1.2c-0.3,0.4-0.7,0.7-1.1,0.9c-0.4,0.3-0.9,0.4-1.3,0.5l-2,0.4v-7L94.5,4.5z
					 M94.5,9.4c0.2,0,0.4-0.1,0.6-0.2c0.2-0.1,0.3-0.2,0.5-0.4c0.1-0.2,0.2-0.3,0.3-0.5c0.1-0.2,0.1-0.4,0.1-0.6
					c0-0.2,0-0.4-0.1-0.6c-0.1-0.2-0.2-0.3-0.3-0.4c-0.1-0.1-0.3-0.2-0.5-0.2c-0.2,0-0.4-0.1-0.6,0V9.4z"/>
				<path class="st1" d="M99.5,3.6c0.1,0,0.2,0,0.2,0.1v0.5c0,0.1,0,0.2,0,0.3c0,0.1,0,0.2,0,0.3c0,0.1,0,0.2-0.1,0.3
					c0,0.1-0.1,0.2-0.1,0.3c0,0.1-0.1,0.2-0.2,0.3c-0.1,0.1-0.1,0.2-0.2,0.3C99.1,6.1,99,6.1,99,6.2c-0.1,0.1-0.1,0.1-0.2,0.1
					l-0.3,0.1c-0.1,0-0.2,0-0.2,0c0,0,0-0.1,0.1-0.1c0.1-0.1,0.1-0.3,0.2-0.5c0.1-0.2,0.1-0.3,0.2-0.4c0,0,0,0,0-0.1
					c0,0,0-0.1-0.1,0l-0.2,0c-0.1,0-0.1,0-0.1-0.1V3.9c0-0.1,0.1-0.2,0.2-0.2L99.5,3.6z"/>
				<path class="st1" d="M102.6,3c0.3-0.1,0.7-0.1,1-0.1c0.3,0,0.7,0,1,0.1c0,0.1,0,0.2,0,0.2c0,0.1,0,0.1,0,0.2c0,0.1,0,0.3,0,0.5
					c0,0.2,0,0.5,0,1c-0.2,0-0.4-0.1-0.7-0.1c-0.3,0-0.5,0-0.7,0c-0.1,0-0.2,0-0.4,0.1c-0.1,0-0.2,0.1-0.3,0.2
					c-0.1,0.1-0.1,0.2,0,0.2c0,0.1,0.1,0.1,0.2,0.2l1.1,0.2c0.2,0,0.4,0.1,0.6,0.2c0.2,0.1,0.4,0.2,0.5,0.4c0.1,0.1,0.2,0.3,0.3,0.5
					c0.1,0.2,0.1,0.4,0.1,0.6c0,0.3,0,0.7-0.2,0.9c-0.1,0.3-0.3,0.6-0.5,0.8c-0.2,0.2-0.4,0.4-0.7,0.6c-0.3,0.2-0.6,0.3-0.9,0.4
					c0,0-0.1,0-0.2,0c-0.1,0-0.2,0-0.3,0.1c-0.2,0-0.4,0.1-0.6,0.1c-0.2,0-0.3,0-0.5,0c-0.2,0-0.3,0-0.5-0.1c-0.2,0-0.4-0.1-0.7-0.1
					l0.5-2.2c0.1,0,0.2,0,0.3,0.1c0.1,0,0.2,0,0.3,0.1l0.4,0.1c0.1,0,0.3,0.1,0.4,0.1c0.1,0,0.3,0,0.5,0c0.1,0,0.2-0.1,0.3-0.1
					C103,8,103,7.9,103,7.8c0-0.1,0-0.1-0.1-0.2c0-0.1-0.1-0.1-0.2-0.1c-0.1,0-0.1-0.1-0.2-0.1c-0.1,0-0.1,0-0.2,0
					c-0.3,0-0.6-0.1-0.8-0.2c-0.2-0.1-0.5-0.3-0.6-0.5c-0.2-0.2-0.3-0.4-0.4-0.6c-0.1-0.2-0.2-0.5-0.2-0.7c0-0.2,0-0.4,0.1-0.6
					c0.1-0.2,0.1-0.4,0.3-0.6c0.1-0.2,0.3-0.4,0.5-0.5c0.2-0.2,0.4-0.3,0.7-0.4C102.1,3.1,102.3,3,102.6,3z"/>
			</g>
			<g>
				<g>
					<path class="st1" d="M59.1,19.1v2.4l-3.7,0.7v1l3-0.5V25l-3,0.5v3.3l-2.6,0.5v-9.1L59.1,19.1z"/>
					<path class="st1" d="M63.9,18.2l2.8,8.6l-2.6,0.5l-0.3-1l-2.7,0.5l-0.3,1.1l-2.6,0.5l2.8-9.6L63.9,18.2z M63,23.9l-0.5-2L62,24
						L63,23.9z"/>
					<path class="st1" d="M70.4,17.1l2.8-0.5L70.9,26l-3.2,0.6L65.3,18l2.8-0.5l1.1,4.3L70.4,17.1z"/>
					<path class="st1" d="M77.6,15.7c0.6-0.1,1.2-0.1,1.8,0.1c0.6,0.1,1.1,0.4,1.5,0.7c0.4,0.4,0.8,0.8,1,1.3
						c0.2,0.5,0.4,1.1,0.4,1.8c0,0.7-0.1,1.3-0.4,1.9c-0.2,0.6-0.6,1.2-1,1.7c-0.4,0.5-0.9,0.9-1.5,1.3c-0.6,0.3-1.2,0.6-1.8,0.7
						c-0.6,0.1-1.2,0.1-1.8-0.1c-0.6-0.1-1.1-0.4-1.5-0.7c-0.4-0.4-0.8-0.8-1-1.3c-0.2-0.5-0.4-1.1-0.4-1.8c0-0.7,0.1-1.3,0.4-1.9
						c0.2-0.6,0.6-1.2,1-1.7c0.4-0.5,0.9-0.9,1.5-1.3C76.3,16,76.9,15.8,77.6,15.7z M79.6,20c0-0.3-0.1-0.5-0.2-0.8
						c-0.1-0.2-0.2-0.4-0.4-0.6c-0.2-0.1-0.4-0.2-0.6-0.3c-0.2-0.1-0.5-0.1-0.8,0c-0.3,0-0.5,0.1-0.8,0.3c-0.2,0.1-0.4,0.3-0.6,0.5
						c-0.2,0.2-0.3,0.4-0.4,0.7c-0.1,0.3-0.2,0.5-0.2,0.8c0,0.3,0.1,0.5,0.2,0.8c0.1,0.2,0.2,0.4,0.4,0.6c0.2,0.1,0.4,0.3,0.6,0.3
						c0.2,0.1,0.5,0.1,0.8,0c0.3,0,0.5-0.1,0.8-0.3c0.2-0.1,0.4-0.3,0.6-0.5c0.2-0.2,0.3-0.4,0.4-0.7C79.5,20.6,79.6,20.3,79.6,20z"
						/>
					<path class="st1" d="M89.7,13.7v5.8c0,0.5-0.1,0.9-0.3,1.4c-0.2,0.4-0.4,0.8-0.7,1.2c-0.3,0.4-0.7,0.7-1.1,0.9
						c-0.4,0.3-0.8,0.4-1.3,0.5c-0.5,0.1-0.9,0.1-1.3,0c-0.4-0.1-0.8-0.3-1.1-0.5c-0.3-0.3-0.6-0.6-0.7-0.9
						c-0.2-0.4-0.3-0.8-0.3-1.3v-5.8l2.6-0.5v5.7c0,0.2,0.1,0.4,0.2,0.5c0.2,0.1,0.3,0.2,0.5,0.1c0.2,0,0.4-0.1,0.6-0.3
						c0.2-0.2,0.2-0.4,0.2-0.6v-5.7L89.7,13.7z"/>
					<path class="st1" d="M97.9,21.3l-2.8,0.5c-0.4-0.5-0.7-0.9-0.9-1.2c-0.2-0.3-0.4-0.5-0.6-0.6c-0.2-0.1-0.3-0.2-0.3-0.2
						c-0.1,0-0.1,0-0.2,0c0,0,0,0.1,0,0.2c0,0.1,0,0.2,0,0.2v2l-2.6,0.5v-9.1l3.4-0.6c0.4-0.1,0.8,0,1.2,0.1c0.4,0.1,0.7,0.3,1,0.6
						c0.3,0.3,0.6,0.6,0.7,1c0.2,0.4,0.2,0.8,0.2,1.3c0,0.4-0.1,0.9-0.3,1.4c-0.2,0.5-0.4,0.9-0.8,1.3L97.9,21.3z M94.5,16.2
						c0-0.2-0.1-0.4-0.2-0.6c-0.2-0.1-0.4-0.2-0.6-0.1L93,15.6v1.7l0.6-0.1c0.2,0,0.4-0.2,0.6-0.4C94.4,16.7,94.5,16.4,94.5,16.2z"
						/>
					<path class="st1" d="M98.3,12.2l3.9-0.7v2.3l-0.6,0.1v4.4l0.6-0.1v2.3l-3.9,0.7v-2.3l0.6-0.1v-4.4l-0.6,0.1V12.2z"/>
					<path class="st1" d="M109.1,10.3v2.6l-1.8,0.3v6.5l-2.6,0.5v-6.5l-1.8,0.3v-2.6L109.1,10.3z"/>
					<path class="st1" d="M116,15.5v2.6l-6.2,1.1v-9.1l6.2-1.1v2.6l-3.6,0.6v0.8l3-0.5v2.2l-3,0.5v0.8L116,15.5z"/>
				</g>
			</g>
			<g>
				<g>
					<path class="st1" d="M60.8,29.2l4.6-0.8v2.8l-0.8,0.1v5.2l0.8-0.1v2.8l-4.6,0.8v-2.8l0.8-0.1v-5.2l-0.8,0.1V29.2z"/>
					<path class="st1" d="M74,26.9v10.7L71.1,38l-2.1-3.5v3.9l-2.8,0.5V28.2l2.9-0.5l1.8,3.9v-4.2L74,26.9z"/>
					<path class="st1" d="M78.1,26.1c0.7-0.1,1.4-0.1,2,0.1c0.6,0.2,1.2,0.5,1.7,0.9c0.5,0.4,0.8,0.9,1.1,1.5c0.3,0.6,0.4,1.3,0.4,2
						c0,0.7-0.1,1.5-0.4,2.1c-0.3,0.7-0.6,1.3-1.1,1.9c-0.5,0.6-1,1-1.7,1.4c-0.6,0.4-1.3,0.7-2,0.8l-3,0.5V26.7L78.1,26.1z
						 M78.1,33.7c0.3-0.1,0.6-0.2,0.9-0.3c0.3-0.2,0.5-0.4,0.7-0.6c0.2-0.2,0.4-0.5,0.5-0.8c0.1-0.3,0.2-0.6,0.2-0.9
						c0-0.3-0.1-0.6-0.2-0.9c-0.1-0.3-0.3-0.5-0.5-0.6c-0.2-0.2-0.4-0.3-0.7-0.4c-0.3-0.1-0.6-0.1-0.9,0V33.7z"/>
					<path class="st1" d="M83.8,25.1l4.6-0.8v2.8l-0.8,0.1v5.2l0.8-0.1V35l-4.6,0.8v-2.8l0.8-0.1v-5.2l-0.8,0.1V25.1z"/>
					<path class="st1" d="M95.6,23.1l3.2,10.1l-3,0.5l-0.3-1.2L92.3,33L92,34.4l-3,0.5l3.2-11.2L95.6,23.1z M94.5,29.7l-0.6-2.4
						l-0.6,2.6L94.5,29.7z"/>
					<path class="st1" d="M107.3,21v10.7l-2.9,0.5l-2.1-3.5v3.9L99.5,33V22.4l2.9-0.5l1.8,3.9v-4.2L107.3,21z"/>
				</g>
			</g>
			<g>
				<path class="st1" d="M59.5,14.1v1l-0.7,0.1v2.5l-1,0.2v-2.5l-0.7,0.1v-1L59.5,14.1z"/>
				<path class="st1" d="M62.5,13.5V17l-1,0.2V16l-0.6,0.1v1.3l-1,0.2V14l1-0.2v1.2l0.6-0.1v-1.2L62.5,13.5z"/>
				<path class="st1" d="M65.4,15.5v1L63,17v-3.5l2.4-0.4v1L64,14.3v0.3l1.2-0.2v0.8L64,15.5v0.3L65.4,15.5z"/>
			</g>
		</g>
	</g>
	<line class="st2" x1="45.6" y1="2.3" x2="45.6" y2="44.1"/>
</g>
</svg>
